PathFileType	4	(X/Y/Z)	C:\Users\italobelli\Desktop\GitHub\PTbot_officialCBL\Personal_Results\FLX03_noisy1.trc
DataRate	CameraRate	NumFrames	NumMarkers	Units	OrigDataRate	OrigDataStartFrame	OrigNumFrames
106.125000	106.125000	34	9	m	106.125000	1	850
Frame#	Time		gu		centelbow		EpL		centpxt8		centijc7		ij		ts		aa		ai
			X1	Y1	Z1	X2	Y2	Z2	X3	Y3	Z3	X4	Y4	Z4	X5	Y5	Z5	X6	Y6	Z6	X7	Y7	Z7	X8	Y8	Z8	X9	Y9	Z9

1	0	-0.079854	-0.015312	0.16449	-0.12013	-0.26	0.19653	-0.10082	-0.25541	0.22194	-0.046816	-0.15316	-0.008669	-0.046816	0.031938	-0.008669	0	0	0	-0.13718	0.023408	0.051793	-0.10966	0.021682	0.16783	-0.14975	-0.089213	0.058454
2	0.0094229	-0.079889	-0.015321	0.16446	-0.12036	-0.26011	0.19635	-0.10104	-0.25554	0.22176	-0.046816	-0.15316	-0.008669	-0.046816	0.031938	-0.008669	0	0	0	-0.13718	0.023417	0.051775	-0.10968	0.02167	0.16782	-0.14976	-0.089205	0.058417
3	0.018846	-0.079923	-0.01533	0.16444	-0.12058	-0.26023	0.19617	-0.10126	-0.25566	0.22158	-0.046816	-0.15316	-0.008669	-0.046816	0.031938	-0.008669	0	0	0	-0.13718	0.023425	0.051757	-0.10969	0.021659	0.1678	-0.14977	-0.089197	0.05838
4	0.028269	-0.079956	-0.015339	0.16441	-0.12078	-0.26034	0.196	-0.10145	-0.25579	0.22141	-0.046816	-0.15316	-0.008669	-0.046816	0.031938	-0.008669	0	0	0	-0.13718	0.023432	0.051739	-0.10971	0.021647	0.16779	-0.14978	-0.08919	0.058345
5	0.037691	-0.079989	-0.01535	0.16438	-0.12097	-0.26045	0.19582	-0.10164	-0.25591	0.22123	-0.046816	-0.15316	-0.008669	-0.046816	0.031938	-0.008669	0	0	0	-0.13718	0.023439	0.051722	-0.10973	0.021636	0.16777	-0.14978	-0.089183	0.05831
6	0.047114	-0.080021	-0.015361	0.16436	-0.12115	-0.26056	0.19565	-0.10182	-0.25603	0.22106	-0.046816	-0.15316	-0.008669	-0.046816	0.031938	-0.008669	0	0	0	-0.13719	0.023446	0.051705	-0.10975	0.021624	0.16776	-0.14979	-0.089177	0.058277
7	0.056537	-0.080053	-0.015372	0.16433	-0.12132	-0.26067	0.19547	-0.10198	-0.25615	0.22089	-0.046816	-0.15316	-0.008669	-0.046816	0.031938	-0.008669	0	0	0	-0.13719	0.023452	0.051688	-0.10976	0.021613	0.16774	-0.1498	-0.089172	0.058245
8	0.06596	-0.080084	-0.015384	0.1643	-0.12148	-0.26077	0.1953	-0.10214	-0.25626	0.22072	-0.046816	-0.15316	-0.008669	-0.046816	0.031938	-0.008669	0	0	0	-0.13719	0.023457	0.051672	-0.10978	0.021602	0.16773	-0.14981	-0.089166	0.058213
9	0.075383	-0.080115	-0.015396	0.16428	-0.12162	-0.26088	0.19513	-0.10228	-0.25638	0.22055	-0.046816	-0.15316	-0.008669	-0.046816	0.031938	-0.008669	0	0	0	-0.13719	0.023462	0.051656	-0.1098	0.021592	0.16771	-0.14982	-0.089162	0.058183
10	0.084806	-0.080145	-0.015409	0.16425	-0.12176	-0.26098	0.19497	-0.10241	-0.25649	0.22038	-0.046816	-0.15316	-0.008669	-0.046816	0.031938	-0.008669	0	0	0	-0.1372	0.023466	0.05164	-0.10981	0.021581	0.1677	-0.14983	-0.089158	0.058154
11	0.094229	-0.080174	-0.015422	0.16422	-0.12188	-0.26109	0.1948	-0.10254	-0.2566	0.22022	-0.046816	-0.15316	-0.008669	-0.046816	0.031938	-0.008669	0	0	0	-0.1372	0.02347	0.051625	-0.10983	0.02157	0.16768	-0.14984	-0.089154	0.058125
12	0.10365	-0.080203	-0.015436	0.1642	-0.122	-0.26119	0.19464	-0.10265	-0.25671	0.22005	-0.046816	-0.15316	-0.008669	-0.046816	0.031938	-0.008669	0	0	0	-0.1372	0.023474	0.051609	-0.10985	0.02156	0.16767	-0.14985	-0.08915	0.058097
13	0.11307	-0.080231	-0.01545	0.16417	-0.1221	-0.26129	0.19447	-0.10275	-0.25682	0.21989	-0.046816	-0.15316	-0.008669	-0.046816	0.031938	-0.008669	0	0	0	-0.1372	0.023477	0.051595	-0.10986	0.02155	0.16766	-0.14986	-0.089148	0.058071
14	0.1225	-0.080258	-0.015465	0.16415	-0.12219	-0.26139	0.19432	-0.10284	-0.25693	0.21973	-0.046816	-0.15316	-0.008669	-0.046816	0.031938	-0.008669	0	0	0	-0.13721	0.023479	0.05158	-0.10988	0.02154	0.16764	-0.14986	-0.089145	0.058045
15	0.13192	-0.080285	-0.01548	0.16412	-0.12227	-0.26149	0.19416	-0.10293	-0.25703	0.21957	-0.046816	-0.15316	-0.008669	-0.046816	0.031938	-0.008669	0	0	0	-0.13721	0.023481	0.051566	-0.1099	0.02153	0.16763	-0.14987	-0.089143	0.05802
16	0.14134	-0.080311	-0.015495	0.16409	-0.12235	-0.26158	0.194	-0.103	-0.25713	0.21942	-0.046816	-0.15316	-0.008669	-0.046816	0.031938	-0.008669	0	0	0	-0.13721	0.023483	0.051552	-0.10991	0.02152	0.16761	-0.14988	-0.089141	0.057996
17	0.15077	-0.080337	-0.015511	0.16407	-0.12241	-0.26168	0.19385	-0.10306	-0.25724	0.21926	-0.046816	-0.15316	-0.008669	-0.046816	0.031938	-0.008669	0	0	0	-0.13722	0.023484	0.051539	-0.10993	0.02151	0.1676	-0.14989	-0.08914	0.057973
18	0.16019	-0.080361	-0.015527	0.16405	-0.12247	-0.26178	0.1937	-0.10312	-0.25734	0.21911	-0.046816	-0.15316	-0.008669	-0.046816	0.031938	-0.008669	0	0	0	-0.13722	0.023485	0.051526	-0.10994	0.0215	0.16759	-0.1499	-0.089139	0.05795
19	0.16961	-0.080386	-0.015544	0.16402	-0.12251	-0.26187	0.19355	-0.10317	-0.25744	0.21896	-0.046816	-0.15316	-0.008669	-0.046816	0.031938	-0.008669	0	0	0	-0.13723	0.023486	0.051513	-0.10996	0.021491	0.16758	-0.14991	-0.089138	0.057929
20	0.17903	-0.080409	-0.01556	0.164	-0.12255	-0.26196	0.1934	-0.1032	-0.25753	0.21882	-0.046816	-0.15316	-0.008669	-0.046816	0.031938	-0.008669	0	0	0	-0.13723	0.023486	0.051501	-0.10997	0.021481	0.16756	-0.14992	-0.089138	0.057908
21	0.18846	-0.080432	-0.015577	0.16397	-0.12258	-0.26206	0.19326	-0.10323	-0.25763	0.21867	-0.046816	-0.15316	-0.008669	-0.046816	0.031938	-0.008669	0	0	0	-0.13723	0.023486	0.051489	-0.10999	0.021472	0.16755	-0.14993	-0.089138	0.057888
22	0.19788	-0.080454	-0.015595	0.16395	-0.1226	-0.26215	0.19311	-0.10326	-0.25772	0.21853	-0.046816	-0.15316	-0.008669	-0.046816	0.031938	-0.008669	0	0	0	-0.13724	0.023485	0.051477	-0.11	0.021463	0.16754	-0.14994	-0.089138	0.057869
23	0.2073	-0.080475	-0.015612	0.16393	-0.12261	-0.26224	0.19297	-0.10327	-0.25782	0.21839	-0.046816	-0.15316	-0.008669	-0.046816	0.031938	-0.008669	0	0	0	-0.13724	0.023484	0.051466	-0.11002	0.021454	0.16753	-0.14995	-0.089139	0.05785
24	0.21673	-0.080495	-0.01563	0.16391	-0.12262	-0.26233	0.19284	-0.10328	-0.25791	0.21826	-0.046816	-0.15316	-0.008669	-0.046816	0.031938	-0.008669	0	0	0	-0.13725	0.023483	0.051455	-0.11003	0.021445	0.16752	-0.14995	-0.08914	0.057833
25	0.22615	-0.080515	-0.015648	0.16388	-0.12261	-0.26242	0.1927	-0.10327	-0.258	0.21812	-0.046816	-0.15316	-0.008669	-0.046816	0.031938	-0.008669	0	0	0	-0.13725	0.023482	0.051445	-0.11004	0.021436	0.16751	-0.14996	-0.089141	0.057816
26	0.23557	-0.080534	-0.015667	0.16386	-0.1226	-0.26251	0.19257	-0.10327	-0.25809	0.21799	-0.046816	-0.15316	-0.008669	-0.046816	0.031938	-0.008669	0	0	0	-0.13725	0.02348	0.051435	-0.11006	0.021427	0.1675	-0.14997	-0.089143	0.0578
27	0.24499	-0.080552	-0.015685	0.16384	-0.12258	-0.2626	0.19244	-0.10325	-0.25818	0.21786	-0.046816	-0.15316	-0.008669	-0.046816	0.031938	-0.008669	0	0	0	-0.13726	0.023478	0.051425	-0.11007	0.021418	0.16749	-0.14998	-0.089144	0.057784
28	0.25442	-0.08057	-0.015704	0.16382	-0.12256	-0.26269	0.19232	-0.10323	-0.25827	0.21774	-0.046816	-0.15316	-0.008669	-0.046816	0.031938	-0.008669	0	0	0	-0.13726	0.023476	0.051416	-0.11008	0.02141	0.16748	-0.14999	-0.089146	0.057769
29	0.26384	-0.080587	-0.015723	0.1638	-0.12253	-0.26277	0.19219	-0.1032	-0.25836	0.21761	-0.046816	-0.15316	-0.008669	-0.046816	0.031938	-0.008669	0	0	0	-0.13727	0.023474	0.051407	-0.11009	0.021401	0.16747	-0.15	-0.089148	0.057755
30	0.27326	-0.080602	-0.015742	0.16378	-0.12249	-0.26286	0.19207	-0.10317	-0.25845	0.21749	-0.046816	-0.15316	-0.008669	-0.046816	0.031938	-0.008669	0	0	0	-0.13727	0.023471	0.051398	-0.11011	0.021393	0.16746	-0.15001	-0.08915	0.057741
31	0.28269	-0.080618	-0.015761	0.16376	-0.12245	-0.26295	0.19196	-0.10312	-0.25853	0.21738	-0.046816	-0.15316	-0.008669	-0.046816	0.031938	-0.008669	0	0	0	-0.13728	0.023468	0.05139	-0.11012	0.021384	0.16745	-0.15002	-0.089153	0.057729
32	0.29211	-0.080632	-0.01578	0.16374	-0.1224	-0.26303	0.19184	-0.10308	-0.25862	0.21726	-0.046816	-0.15316	-0.008669	-0.046816	0.031938	-0.008669	0	0	0	-0.13728	0.023465	0.051383	-0.11013	0.021376	0.16744	-0.15003	-0.089156	0.057716
33	0.30153	-0.080645	-0.015799	0.16373	-0.12234	-0.26312	0.19173	-0.10303	-0.2587	0.21715	-0.046816	-0.15316	-0.008669	-0.046816	0.031938	-0.008669	0	0	0	-0.13729	0.023462	0.051375	-0.11014	0.021368	0.16744	-0.15004	-0.089158	0.057705
34	0.31095	-0.080658	-0.015819	0.16371	-0.12228	-0.2632	0.19162	-0.10297	-0.25878	0.21705	-0.046816	-0.15316	-0.008669	-0.046816	0.031938	-0.008669	0	0	0	-0.13729	0.023459	0.051369	-0.11015	0.02136	0.16743	-0.15005	-0.089161	0.057694
